M48
; DRILL file {KiCad (5.1.7)-1} date 02/06/21 18:49:15
; FORMAT={-:-/ absolute / metric / decimal}
; #@! TF.CreationDate,2021-02-06T18:49:15+07:00
; #@! TF.GenerationSoftware,Kicad,Pcbnew,(5.1.7)-1
; #@! TF.FileFunction,Plated,1,2,PTH
FMAT,2
METRIC
T1C0.400
T2C0.700
T3C0.800
T4C1.000
T5C1.092
T6C1.100
T7C1.470
%
G90
G05
T1
X35.812Y-102.375
X41.344Y-105.469
X50.531Y-46.969
X54.656Y-43.875
X55.781Y-43.875
X56.906Y-43.875
X56.95Y-34.969
X69.562Y-46.969
X88.659Y-46.154
X107.709Y-46.229
X123.938Y-59.156
X130.626Y-45.906
X149.572Y-45.802
X168.285Y-45.465
X187.326Y-45.456
X208.594Y-79.031
X208.594Y-80.812
X213.825Y-41.737
X217.406Y-42.469
X226.5Y-110.438
X229.875Y-100.969
X230.156Y-98.719
X232.969Y-116.531
X233.906Y-117.281
X248.244Y-49.224
X267.238Y-49.168
X288.647Y-65.634
X307.696Y-65.446
X326.812Y-65.156
X353.793Y-115.232
X367.969Y-65.156
T2
X55.962Y-32.569
X56.762Y-31.369
X57.562Y-32.569
X58.362Y-31.369
X59.162Y-32.569
T3
X121.875Y-51.469
X121.875Y-53.469
X121.875Y-55.469
X121.875Y-57.469
T4
X96.9Y-54.112
X96.9Y-61.912
X258.881Y-54.037
X258.881Y-61.837
X244.519Y-73.162
X244.519Y-80.962
X292.087Y-92.044
X292.087Y-99.844
X301.669Y-73.162
X301.669Y-80.962
X287.4Y-35.062
X287.4Y-42.862
X37.406Y-100.35
X37.406Y-108.15
X139.688Y-92.044
X139.688Y-99.844
X211.2Y-35.062
X211.2Y-42.862
X273.037Y-92.044
X273.037Y-99.844
X58.8Y-54.112
X58.8Y-61.912
X37.312Y-62.944
X37.312Y-70.744
X268.35Y-35.062
X268.35Y-42.862
X144.581Y-54.037
X144.581Y-61.837
X296.981Y-54.037
X296.981Y-61.837
X149.269Y-73.162
X149.269Y-80.962
X96.9Y-92.212
X96.9Y-100.012
X77.85Y-92.212
X77.85Y-100.012
X249.3Y-35.062
X249.3Y-42.862
X39.75Y-105.506
X39.75Y-113.306
X253.987Y-92.044
X253.987Y-99.844
X77.85Y-54.112
X77.85Y-61.912
X311.137Y-92.044
X311.137Y-99.844
X163.631Y-54.037
X163.631Y-61.837
X311.25Y-109.819
X311.25Y-117.619
X77.85Y-35.062
X77.85Y-42.862
X182.681Y-54.037
X182.681Y-61.837
X206.419Y-73.162
X206.419Y-80.962
X158.737Y-92.044
X158.737Y-99.844
X177.787Y-92.044
X177.787Y-99.844
X39.75Y-57.162
X39.75Y-64.962
X344.55Y-35.062
X344.55Y-42.862
X196.837Y-92.044
X196.837Y-99.844
X96.9Y-35.062
X96.9Y-42.862
X77.85Y-111.262
X77.85Y-119.062
X125.531Y-54.037
X125.531Y-61.837
X96.9Y-111.262
X96.9Y-119.062
X115.95Y-35.062
X115.95Y-42.862
X220.781Y-54.037
X220.781Y-61.837
X335.081Y-54.037
X335.081Y-61.837
X330.188Y-92.044
X330.188Y-99.844
X339.769Y-73.162
X339.769Y-80.962
X201.731Y-54.037
X201.731Y-61.837
X37.312Y-35.062
X37.312Y-42.862
X239.831Y-54.037
X239.831Y-61.837
X58.8Y-111.262
X58.8Y-119.062
X316.031Y-54.037
X316.031Y-61.837
X144.525Y-111.262
X144.525Y-119.062
X39.75Y-35.062
X39.75Y-42.862
X282.619Y-73.162
X282.619Y-80.962
X77.85Y-73.162
X77.85Y-80.962
X225.469Y-73.162
X225.469Y-80.962
X39.75Y-95.194
X39.75Y-102.994
X277.931Y-54.037
X277.931Y-61.837
X120.712Y-111.262
X120.712Y-119.062
X325.5Y-35.062
X325.5Y-42.862
X354.131Y-54.037
X354.131Y-61.837
X192.15Y-35.062
X192.15Y-42.862
X130.219Y-73.162
X130.219Y-80.962
X320.719Y-73.162
X320.719Y-80.962
X58.8Y-73.162
X58.8Y-80.962
X187.369Y-73.162
X187.369Y-80.962
X234.938Y-92.044
X234.938Y-99.844
X306.45Y-35.062
X306.45Y-42.862
X358.875Y-109.819
X358.875Y-117.619
X135.0Y-35.062
X135.0Y-42.862
X168.338Y-111.262
X168.338Y-119.062
X39.75Y-67.35
X39.75Y-75.15
X96.9Y-73.162
X96.9Y-80.962
X168.319Y-73.162
X168.319Y-80.962
X215.887Y-92.044
X215.887Y-99.844
X263.569Y-73.162
X263.569Y-80.962
X58.8Y-92.212
X58.8Y-100.012
X358.444Y-45.844
X366.244Y-45.844
X58.8Y-35.062
X58.8Y-42.862
X287.438Y-109.819
X287.438Y-117.619
X173.1Y-35.062
X173.1Y-42.862
X335.062Y-109.819
X335.062Y-117.619
X154.05Y-35.062
X154.05Y-42.862
X230.25Y-35.062
X230.25Y-42.862
T5
X198.468Y-49.192
X198.468Y-64.432
X201.007Y-49.192
X201.007Y-64.432
X203.547Y-49.192
X203.547Y-64.432
X206.087Y-49.192
X206.087Y-64.432
X208.627Y-49.192
X208.627Y-64.432
X211.167Y-49.192
X211.167Y-64.432
X213.707Y-49.192
X213.707Y-64.432
X216.248Y-49.192
X216.248Y-64.432
X218.787Y-49.192
X218.787Y-64.432
X221.327Y-49.192
X221.327Y-64.432
X223.867Y-49.192
X223.867Y-64.432
X226.407Y-49.192
X226.407Y-64.432
T6
X122.062Y-71.719
X122.062Y-78.219
X126.562Y-71.719
X126.562Y-78.219
T7
X210.896Y-73.154
X217.246Y-70.614
X82.309Y-92.204
X88.659Y-89.664
X287.096Y-73.154
X293.446Y-70.614
X25.159Y-101.729
X31.509Y-99.189
X294.24Y-111.254
X300.59Y-108.714
X82.309Y-111.254
X88.659Y-108.714
X320.434Y-54.104
X326.784Y-51.564
X277.571Y-92.204
X283.921Y-89.664
X301.384Y-54.104
X307.734Y-51.564
X253.759Y-35.054
X260.109Y-32.514
X82.309Y-35.054
X88.659Y-32.514
X191.846Y-73.154
X198.196Y-70.614
X349.009Y-35.054
X355.359Y-32.514
X268.046Y-73.154
X274.396Y-70.614
X144.221Y-92.204
X150.571Y-89.664
X25.159Y-35.054
X31.509Y-32.514
X108.502Y-73.154
X114.852Y-70.614
X63.259Y-111.254
X69.609Y-108.714
X139.459Y-35.054
X145.809Y-32.514
X222.802Y-111.254
X229.153Y-108.714
X106.121Y-54.104
X112.471Y-51.564
X120.409Y-35.054
X126.759Y-32.514
X44.209Y-111.254
X50.559Y-108.714
X339.484Y-54.104
X345.834Y-51.564
X229.946Y-73.154
X236.296Y-70.614
X44.209Y-73.154
X50.559Y-70.614
X325.196Y-73.154
X331.546Y-70.614
X341.865Y-111.254
X348.215Y-108.714
X239.471Y-92.204
X245.821Y-89.664
X63.259Y-35.054
X69.609Y-32.514
X220.421Y-92.204
X226.771Y-89.664
X187.084Y-54.104
X193.434Y-51.564
X310.909Y-35.054
X317.259Y-32.514
X258.521Y-92.204
X264.871Y-89.664
X168.034Y-54.104
X174.384Y-51.564
X158.509Y-35.054
X164.859Y-32.514
X153.746Y-73.154
X160.096Y-70.614
X82.309Y-73.154
X88.659Y-70.614
X63.259Y-73.154
X69.609Y-70.614
X151.365Y-111.254
X157.715Y-108.714
X363.296Y-54.104
X369.646Y-51.564
X358.534Y-35.054
X364.884Y-32.514
X225.184Y-54.104
X231.534Y-51.564
X163.271Y-92.204
X169.621Y-89.664
X244.234Y-54.104
X250.584Y-51.564
X182.321Y-92.204
X188.671Y-89.664
X282.334Y-54.104
X288.684Y-51.564
X44.209Y-35.054
X50.559Y-32.514
X248.996Y-73.154
X255.346Y-70.614
X134.696Y-73.154
X141.046Y-70.614
X103.74Y-111.254
X110.09Y-108.714
X25.159Y-63.629
X31.509Y-61.089
X329.959Y-35.054
X336.309Y-32.514
X351.39Y-92.204
X357.74Y-89.664
X148.984Y-54.104
X155.334Y-51.564
X296.621Y-92.204
X302.971Y-89.664
X44.209Y-54.104
X50.559Y-51.564
X234.709Y-35.054
X241.059Y-32.514
X356.152Y-73.154
X362.502Y-70.614
X306.146Y-73.154
X312.496Y-70.614
X318.053Y-111.254
X324.402Y-108.714
X177.559Y-35.054
X183.909Y-32.514
X201.371Y-92.204
X207.721Y-89.664
X291.859Y-35.054
X298.209Y-32.514
X272.809Y-35.054
X279.159Y-32.514
X127.552Y-111.254
X133.903Y-108.714
X63.259Y-54.104
X69.609Y-51.564
X196.609Y-35.054
X202.959Y-32.514
X113.265Y-92.204
X119.615Y-89.664
X129.934Y-54.104
X136.284Y-51.564
X368.059Y-35.054
X374.409Y-32.514
X44.209Y-92.204
X50.559Y-89.664
X172.796Y-73.154
X179.146Y-70.614
X365.678Y-111.254
X372.027Y-108.714
X215.659Y-35.054
X222.009Y-32.514
X315.671Y-92.204
X322.021Y-89.664
X82.309Y-54.104
X88.659Y-51.564
X63.259Y-92.204
X69.609Y-89.664
X263.284Y-54.104
X269.634Y-51.564
X206.134Y-54.104
X212.484Y-51.564
X101.359Y-35.054
X107.709Y-32.514
T3
G00X53.912Y-26.799
M15
G01X53.912Y-27.499
M16
G05
G00X53.912Y-31.619
M15
G01X53.912Y-32.319
M16
G05
G00X61.212Y-26.799
M15
G01X61.212Y-27.499
M16
G05
G00X61.212Y-31.619
M15
G01X61.212Y-32.319
M16
G05
T0
M30
