M48
; DRILL file {KiCad (5.1.7)-1} date 02/06/21 18:49:15
; FORMAT={-:-/ absolute / metric / decimal}
; #@! TF.CreationDate,2021-02-06T18:49:15+07:00
; #@! TF.GenerationSoftware,Kicad,Pcbnew,(5.1.7)-1
; #@! TF.FileFunction,NonPlated,1,2,NPTH
FMAT,2
METRIC
T1C1.750
T2C3.048
T3C3.988
%
G90
G05
T1
X209.626Y-75.694
X219.786Y-75.694
X81.039Y-94.744
X91.199Y-94.744
X285.826Y-75.694
X295.986Y-75.694
X23.889Y-104.269
X34.049Y-104.269
X292.97Y-113.794
X303.13Y-113.794
X81.039Y-113.794
X91.199Y-113.794
X319.164Y-56.644
X329.324Y-56.644
X276.301Y-94.744
X286.461Y-94.744
X300.114Y-56.644
X310.274Y-56.644
X252.489Y-37.594
X262.649Y-37.594
X81.039Y-37.594
X91.199Y-37.594
X190.576Y-75.694
X200.736Y-75.694
X347.739Y-37.594
X357.899Y-37.594
X266.776Y-75.694
X276.936Y-75.694
X142.951Y-94.744
X153.111Y-94.744
X23.889Y-37.594
X34.049Y-37.594
X107.233Y-75.694
X117.392Y-75.694
X61.989Y-113.794
X72.149Y-113.794
X138.189Y-37.594
X148.349Y-37.594
X221.532Y-113.794
X231.692Y-113.794
X104.851Y-56.644
X115.011Y-56.644
X119.139Y-37.594
X129.299Y-37.594
X42.939Y-113.794
X53.099Y-113.794
X338.214Y-56.644
X348.374Y-56.644
X228.676Y-75.694
X238.836Y-75.694
X42.939Y-75.694
X53.099Y-75.694
X323.926Y-75.694
X334.086Y-75.694
X340.595Y-113.794
X350.755Y-113.794
X238.201Y-94.744
X248.361Y-94.744
X61.989Y-37.594
X72.149Y-37.594
X219.151Y-94.744
X229.311Y-94.744
X185.814Y-56.644
X195.974Y-56.644
X309.639Y-37.594
X319.799Y-37.594
X257.251Y-94.744
X267.411Y-94.744
X166.764Y-56.644
X176.924Y-56.644
X157.239Y-37.594
X167.399Y-37.594
X152.476Y-75.694
X162.636Y-75.694
X81.039Y-75.694
X91.199Y-75.694
X61.989Y-75.694
X72.149Y-75.694
X150.095Y-113.794
X160.255Y-113.794
X362.026Y-56.644
X372.186Y-56.644
X357.264Y-37.594
X367.424Y-37.594
X223.914Y-56.644
X234.074Y-56.644
X162.001Y-94.744
X172.161Y-94.744
X242.964Y-56.644
X253.124Y-56.644
X181.051Y-94.744
X191.211Y-94.744
X281.064Y-56.644
X291.224Y-56.644
X42.939Y-37.594
X53.099Y-37.594
X247.726Y-75.694
X257.886Y-75.694
X133.426Y-75.694
X143.586Y-75.694
X102.47Y-113.794
X112.63Y-113.794
X23.889Y-66.169
X34.049Y-66.169
X328.689Y-37.594
X338.849Y-37.594
X350.12Y-94.744
X360.28Y-94.744
X147.714Y-56.644
X157.874Y-56.644
X295.351Y-94.744
X305.511Y-94.744
X42.939Y-56.644
X53.099Y-56.644
X233.439Y-37.594
X243.599Y-37.594
X354.882Y-75.694
X365.042Y-75.694
X304.876Y-75.694
X315.036Y-75.694
X316.782Y-113.794
X326.942Y-113.794
X176.289Y-37.594
X186.449Y-37.594
X200.101Y-94.744
X210.261Y-94.744
X290.589Y-37.594
X300.749Y-37.594
X271.539Y-37.594
X281.699Y-37.594
X126.282Y-113.794
X136.442Y-113.794
X61.989Y-56.644
X72.149Y-56.644
X195.339Y-37.594
X205.499Y-37.594
X111.995Y-94.744
X122.155Y-94.744
X128.664Y-56.644
X138.824Y-56.644
X366.789Y-37.594
X376.949Y-37.594
X42.939Y-94.744
X53.099Y-94.744
X171.526Y-75.694
X181.686Y-75.694
X364.407Y-113.794
X374.567Y-113.794
X214.389Y-37.594
X224.549Y-37.594
X314.401Y-94.744
X324.561Y-94.744
X81.039Y-56.644
X91.199Y-56.644
X61.989Y-94.744
X72.149Y-94.744
X262.014Y-56.644
X272.174Y-56.644
X204.864Y-56.644
X215.024Y-56.644
X100.089Y-37.594
X110.249Y-37.594
T2
X350.438Y-30.609
X374.25Y-30.609
X21.984Y-54.262
X21.984Y-78.075
X343.294Y-87.759
X367.106Y-87.759
X348.056Y-68.709
X371.869Y-68.709
X105.169Y-87.759
X128.981Y-87.759
X21.984Y-92.362
X21.984Y-116.175
X176.613Y-120.779
X276.612Y-120.779
T3
X233.756Y-75.694
X48.019Y-75.694
X329.006Y-75.694
X345.675Y-113.794
X243.281Y-94.744
X67.069Y-37.594
X224.231Y-94.744
X190.894Y-56.644
X314.719Y-37.594
X262.331Y-94.744
X171.844Y-56.644
X162.319Y-37.594
X157.556Y-75.694
X86.119Y-75.694
X67.069Y-75.694
X155.175Y-113.794
X367.106Y-56.644
X350.438Y-45.849
X362.344Y-37.594
X374.25Y-45.849
X228.994Y-56.644
X167.081Y-94.744
X248.044Y-56.644
X186.131Y-94.744
X286.144Y-56.644
X48.019Y-37.594
X252.806Y-75.694
X138.506Y-75.694
X107.55Y-113.794
X28.969Y-66.169
X37.224Y-54.262
X37.224Y-78.075
X333.769Y-37.594
X343.294Y-102.999
X355.2Y-94.744
X367.106Y-102.999
X152.794Y-56.644
X300.431Y-94.744
X48.019Y-56.644
X238.519Y-37.594
X348.056Y-83.949
X359.962Y-75.694
X371.869Y-83.949
X309.956Y-75.694
X321.863Y-113.794
X181.369Y-37.594
X205.181Y-94.744
X295.669Y-37.594
X276.619Y-37.594
X131.362Y-113.794
X67.069Y-56.644
X200.419Y-37.594
X105.169Y-102.999
X117.075Y-94.744
X128.981Y-102.999
X133.744Y-56.644
X371.869Y-37.594
X48.019Y-94.744
X176.606Y-75.694
X369.488Y-113.794
X219.469Y-37.594
X319.481Y-94.744
X86.119Y-56.644
X67.069Y-94.744
X267.094Y-56.644
X209.944Y-56.644
X105.169Y-37.594
X214.706Y-75.694
X86.119Y-94.744
X290.906Y-75.694
X28.969Y-104.269
X37.224Y-92.362
X37.224Y-116.175
X298.05Y-113.794
X86.119Y-113.794
X324.244Y-56.644
X281.381Y-94.744
X305.194Y-56.644
X257.569Y-37.594
X86.119Y-37.594
X195.656Y-75.694
X352.819Y-37.594
X271.856Y-75.694
X148.031Y-94.744
X28.969Y-37.594
X112.312Y-75.694
X67.069Y-113.794
X143.269Y-37.594
X176.613Y-105.539
X226.612Y-113.794
X276.612Y-105.539
X109.931Y-56.644
X124.219Y-37.594
X48.019Y-113.794
X343.294Y-56.644
T0
M30
