%TF.GenerationSoftware,KiCad,Pcbnew,(5.1.7)-1*%
%TF.CreationDate,2021-03-05T08:20:41+07:00*%
%TF.ProjectId,bevi,62657669-2e6b-4696-9361-645f70636258,rev?*%
%TF.SameCoordinates,Original*%
%TF.FileFunction,Paste,Bot*%
%TF.FilePolarity,Positive*%
%FSLAX46Y46*%
G04 Gerber Fmt 4.6, Leading zero omitted, Abs format (unit mm)*
G04 Created by KiCad (PCBNEW (5.1.7)-1) date 2021-03-05 08:20:41*
%MOMM*%
%LPD*%
G01*
G04 APERTURE LIST*
%ADD10R,1.200000X1.600000*%
%ADD11R,1.600000X1.200000*%
G04 APERTURE END LIST*
D10*
%TO.C,D85*%
X344531250Y-40362499D03*
X344531250Y-37562499D03*
%TD*%
%TO.C,D97*%
X342093750Y-40337500D03*
X342093750Y-37537500D03*
%TD*%
%TO.C,D96*%
X335062500Y-115118750D03*
X335062500Y-112318750D03*
%TD*%
%TO.C,D95*%
X287437500Y-115118750D03*
X287437500Y-112318750D03*
%TD*%
%TO.C,D94*%
X37312500Y-40362500D03*
X37312500Y-37562500D03*
%TD*%
D11*
%TO.C,D93*%
X30550000Y-112500000D03*
X27750000Y-112500000D03*
%TD*%
D10*
%TO.C,D92*%
X144525000Y-116562500D03*
X144525000Y-113762500D03*
%TD*%
%TO.C,D91*%
X96900000Y-116562500D03*
X96900000Y-113762500D03*
%TD*%
%TO.C,D90*%
X58800000Y-116562500D03*
X58800000Y-113762500D03*
%TD*%
%TO.C,D87*%
X358875000Y-115118750D03*
X358875000Y-112318750D03*
%TD*%
%TO.C,D86*%
X311250000Y-115118750D03*
X311250000Y-112318750D03*
%TD*%
D11*
%TO.C,D84*%
X30462500Y-74437500D03*
X27662500Y-74437500D03*
%TD*%
D10*
%TO.C,D83*%
X168337500Y-116562500D03*
X168337500Y-113762500D03*
%TD*%
%TO.C,D82*%
X120712500Y-116562500D03*
X120712500Y-113762500D03*
%TD*%
%TO.C,D81*%
X77850000Y-116562500D03*
X77850000Y-113762500D03*
%TD*%
%TO.C,D80*%
X39750000Y-110806250D03*
X39750000Y-108006250D03*
%TD*%
%TO.C,D77*%
X354131250Y-59337500D03*
X354131250Y-56537500D03*
%TD*%
%TO.C,D76*%
X311137500Y-97343750D03*
X311137500Y-94543750D03*
%TD*%
%TO.C,D75*%
X273037500Y-97343750D03*
X273037500Y-94543750D03*
%TD*%
%TO.C,D74*%
X234937500Y-97343750D03*
X234937500Y-94543750D03*
%TD*%
%TO.C,D73*%
X196837500Y-97343750D03*
X196837500Y-94543750D03*
%TD*%
%TO.C,D72*%
X158737500Y-97343750D03*
X158737500Y-94543750D03*
%TD*%
%TO.C,D71*%
X96900000Y-97512500D03*
X96900000Y-94712500D03*
%TD*%
%TO.C,D70*%
X58800000Y-97512500D03*
X58800000Y-94712500D03*
%TD*%
%TO.C,D67*%
X330187500Y-97343750D03*
X330187500Y-94543750D03*
%TD*%
%TO.C,D66*%
X292087500Y-97343750D03*
X292087500Y-94543750D03*
%TD*%
%TO.C,D65*%
X253987500Y-97343750D03*
X253987500Y-94543750D03*
%TD*%
%TO.C,D64*%
X215887500Y-97343750D03*
X215887500Y-94543750D03*
%TD*%
%TO.C,D63*%
X177787500Y-97343750D03*
X177787500Y-94543750D03*
%TD*%
%TO.C,D62*%
X139687500Y-97343750D03*
X139687500Y-94543750D03*
%TD*%
%TO.C,D61*%
X77850000Y-97512500D03*
X77850000Y-94712500D03*
%TD*%
%TO.C,D60*%
X39750000Y-100493750D03*
X39750000Y-97693750D03*
%TD*%
%TO.C,D57*%
X339768750Y-78462500D03*
X339768750Y-75662500D03*
%TD*%
%TO.C,D56*%
X301668750Y-78462500D03*
X301668750Y-75662500D03*
%TD*%
%TO.C,D55*%
X263568750Y-78462500D03*
X263568750Y-75662500D03*
%TD*%
%TO.C,D54*%
X225468750Y-78462500D03*
X225468750Y-75662500D03*
%TD*%
%TO.C,D53*%
X187368750Y-78462500D03*
X187368750Y-75662500D03*
%TD*%
%TO.C,D52*%
X149268750Y-78462500D03*
X149268750Y-75662500D03*
%TD*%
%TO.C,D51*%
X96900000Y-78462500D03*
X96900000Y-75662500D03*
%TD*%
%TO.C,D50*%
X58800000Y-78462500D03*
X58800000Y-75662500D03*
%TD*%
%TO.C,D47*%
X320718750Y-78462500D03*
X320718750Y-75662500D03*
%TD*%
%TO.C,D46*%
X282618750Y-78462500D03*
X282618750Y-75662500D03*
%TD*%
%TO.C,D45*%
X244518750Y-78462500D03*
X244518750Y-75662500D03*
%TD*%
%TO.C,D44*%
X206418750Y-78462500D03*
X206418750Y-75662500D03*
%TD*%
%TO.C,D43*%
X168318750Y-78462500D03*
X168318750Y-75662500D03*
%TD*%
%TO.C,D42*%
X130218750Y-78462500D03*
X130218750Y-75662500D03*
%TD*%
%TO.C,D41*%
X77850000Y-78462500D03*
X77850000Y-75662500D03*
%TD*%
%TO.C,D40*%
X39750000Y-72650000D03*
X39750000Y-69850000D03*
%TD*%
%TO.C,D37*%
X335081250Y-59337500D03*
X335081250Y-56537500D03*
%TD*%
%TO.C,D36*%
X296981250Y-59337500D03*
X296981250Y-56537500D03*
%TD*%
%TO.C,D35*%
X258881250Y-59337500D03*
X258881250Y-56537500D03*
%TD*%
%TO.C,D34*%
X239812500Y-59281250D03*
X239812500Y-56481250D03*
%TD*%
%TO.C,D33*%
X163593750Y-59331250D03*
X163593750Y-56531250D03*
%TD*%
%TO.C,D32*%
X144581250Y-59337500D03*
X144581250Y-56537500D03*
%TD*%
%TO.C,D31*%
X96900000Y-59412500D03*
X96900000Y-56612500D03*
%TD*%
%TO.C,D30*%
X58800000Y-59412500D03*
X58800000Y-56612500D03*
%TD*%
%TO.C,D27*%
X316031250Y-59337500D03*
X316031250Y-56537500D03*
%TD*%
%TO.C,D26*%
X277931250Y-59337500D03*
X277931250Y-56537500D03*
%TD*%
%TO.C,D25*%
X256218750Y-59337500D03*
X256218750Y-56537500D03*
%TD*%
%TO.C,D24*%
X237281250Y-59250000D03*
X237281250Y-56450000D03*
%TD*%
%TO.C,D23*%
X161062500Y-59275000D03*
X161062500Y-56475000D03*
%TD*%
%TO.C,D22*%
X125531250Y-59337500D03*
X125531250Y-56537500D03*
%TD*%
%TO.C,D21*%
X77850000Y-59412500D03*
X77850000Y-56612500D03*
%TD*%
%TO.C,D20*%
X39750000Y-62462500D03*
X39750000Y-59662500D03*
%TD*%
%TO.C,D17*%
X325500000Y-40362500D03*
X325500000Y-37562500D03*
%TD*%
%TO.C,D16*%
X287400000Y-40362500D03*
X287400000Y-37562500D03*
%TD*%
%TO.C,D15*%
X249300000Y-40362500D03*
X249300000Y-37562500D03*
%TD*%
%TO.C,D14*%
X211200000Y-40362500D03*
X211200000Y-37562500D03*
%TD*%
%TO.C,D13*%
X173100000Y-40362500D03*
X173100000Y-37562500D03*
%TD*%
%TO.C,D12*%
X135000000Y-40362500D03*
X135000000Y-37562500D03*
%TD*%
%TO.C,D11*%
X96900000Y-40362500D03*
X96900000Y-37562500D03*
%TD*%
%TO.C,D10*%
X58800000Y-40362500D03*
X58800000Y-37562500D03*
%TD*%
%TO.C,D7*%
X306450000Y-40362500D03*
X306450000Y-37562500D03*
%TD*%
%TO.C,D6*%
X268350000Y-40362500D03*
X268350000Y-37562500D03*
%TD*%
%TO.C,D5*%
X230250000Y-40362500D03*
X230250000Y-37562500D03*
%TD*%
%TO.C,D4*%
X192150000Y-40362500D03*
X192150000Y-37562500D03*
%TD*%
%TO.C,D3*%
X154050000Y-40362500D03*
X154050000Y-37562500D03*
%TD*%
%TO.C,D2*%
X115950000Y-40362500D03*
X115950000Y-37562500D03*
%TD*%
%TO.C,D1*%
X77850000Y-40362500D03*
X77850000Y-37562500D03*
%TD*%
%TO.C,D0*%
X39750000Y-40362500D03*
X39750000Y-37562500D03*
%TD*%
M02*
