%TF.GenerationSoftware,KiCad,Pcbnew,(5.1.7)-1*%
%TF.CreationDate,2021-03-05T08:20:41+07:00*%
%TF.ProjectId,bevi,62657669-2e6b-4696-9361-645f70636258,rev?*%
%TF.SameCoordinates,Original*%
%TF.FileFunction,Soldermask,Top*%
%TF.FilePolarity,Negative*%
%FSLAX46Y46*%
G04 Gerber Fmt 4.6, Leading zero omitted, Abs format (unit mm)*
G04 Created by KiCad (PCBNEW (5.1.7)-1) date 2021-03-05 08:20:41*
%MOMM*%
%LPD*%
G01*
G04 APERTURE LIST*
%ADD10C,3.987800*%
%ADD11C,1.750000*%
%ADD12C,3.048000*%
%ADD13C,2.000000*%
%ADD14O,1.350000X1.350000*%
%ADD15R,1.350000X1.350000*%
%ADD16C,1.752600*%
%ADD17R,1.752600X1.752600*%
%ADD18O,1.200000X1.900000*%
%ADD19C,1.100000*%
%ADD20R,1.600000X1.600000*%
%ADD21C,1.600000*%
G04 APERTURE END LIST*
D10*
%TO.C,MX_8_4*%
X28968750Y-66168750D03*
D11*
X23888750Y-66168750D03*
X34048750Y-66168750D03*
D12*
X21983750Y-78075000D03*
X21983750Y-54262500D03*
D10*
X37223750Y-78075000D03*
X37223750Y-54262500D03*
%TD*%
D13*
%TO.C,SW1*%
X122062500Y-78218750D03*
X126562500Y-78218750D03*
X122062500Y-71718750D03*
X126562500Y-71718750D03*
%TD*%
D14*
%TO.C,J2*%
X121875000Y-51468750D03*
X121875000Y-53468750D03*
X121875000Y-55468750D03*
D15*
X121875000Y-57468750D03*
%TD*%
D16*
%TO.C,U1*%
X198467500Y-49192500D03*
X226407500Y-64432500D03*
X201007500Y-49192500D03*
X203547500Y-49192500D03*
X206087500Y-49192500D03*
X208627500Y-49192500D03*
X211167500Y-49192500D03*
X213707500Y-49192500D03*
X216247500Y-49192500D03*
X218787500Y-49192500D03*
X221327500Y-49192500D03*
X223867500Y-49192500D03*
X226407500Y-49192500D03*
X223867500Y-64432500D03*
X221327500Y-64432500D03*
X218787500Y-64432500D03*
X216247500Y-64432500D03*
X213707500Y-64432500D03*
X211167500Y-64432500D03*
X208627500Y-64432500D03*
X206087500Y-64432500D03*
X203547500Y-64432500D03*
X201007500Y-64432500D03*
D17*
X198467500Y-64432500D03*
%TD*%
D18*
%TO.C,J1*%
X61212500Y-31968750D03*
X53912500Y-31968750D03*
D19*
X55962500Y-32568750D03*
X56762500Y-31368750D03*
X57562500Y-32568750D03*
X58362500Y-31368750D03*
X59162500Y-32568750D03*
D18*
X53912500Y-27148750D03*
X61212500Y-27148750D03*
%TD*%
D10*
%TO.C,MX_0_1*%
X86118750Y-37593750D03*
D11*
X81038750Y-37593750D03*
X91198750Y-37593750D03*
%TD*%
D20*
%TO.C,D85*%
X344531250Y-42862499D03*
D21*
X344531250Y-35062499D03*
%TD*%
D10*
%TO.C,MX_9_7_1*%
X352818750Y-37593750D03*
D11*
X347738750Y-37593750D03*
X357898750Y-37593750D03*
%TD*%
D10*
%TO.C,MX_8_5*%
X371868750Y-37593750D03*
D11*
X366788750Y-37593750D03*
X376948750Y-37593750D03*
%TD*%
D20*
%TO.C,D97*%
X342093750Y-42837500D03*
D21*
X342093750Y-35037500D03*
%TD*%
D20*
%TO.C,D96*%
X335062500Y-117618750D03*
D21*
X335062500Y-109818750D03*
%TD*%
D20*
%TO.C,D95*%
X287437500Y-117618750D03*
D21*
X287437500Y-109818750D03*
%TD*%
D20*
%TO.C,D94*%
X37312500Y-42862500D03*
D21*
X37312500Y-35062500D03*
%TD*%
D20*
%TO.C,D93*%
X33050000Y-112500000D03*
D21*
X25250000Y-112500000D03*
%TD*%
D20*
%TO.C,D92*%
X144525000Y-119062500D03*
D21*
X144525000Y-111262500D03*
%TD*%
D20*
%TO.C,D91*%
X96900000Y-119062500D03*
D21*
X96900000Y-111262500D03*
%TD*%
D20*
%TO.C,D90*%
X58800000Y-119062500D03*
D21*
X58800000Y-111262500D03*
%TD*%
D20*
%TO.C,D87*%
X358875000Y-117618750D03*
D21*
X358875000Y-109818750D03*
%TD*%
D20*
%TO.C,D86*%
X311250000Y-117618750D03*
D21*
X311250000Y-109818750D03*
%TD*%
D20*
%TO.C,D84*%
X32962500Y-74437500D03*
D21*
X25162500Y-74437500D03*
%TD*%
D20*
%TO.C,D83*%
X168337500Y-119062500D03*
D21*
X168337500Y-111262500D03*
%TD*%
D20*
%TO.C,D82*%
X120712500Y-119062500D03*
D21*
X120712500Y-111262500D03*
%TD*%
D20*
%TO.C,D81*%
X77850000Y-119062500D03*
D21*
X77850000Y-111262500D03*
%TD*%
D20*
%TO.C,D80*%
X39750000Y-113306250D03*
D21*
X39750000Y-105506250D03*
%TD*%
D20*
%TO.C,D77*%
X354131250Y-61837500D03*
D21*
X354131250Y-54037500D03*
%TD*%
D20*
%TO.C,D76*%
X311137500Y-99843750D03*
D21*
X311137500Y-92043750D03*
%TD*%
D20*
%TO.C,D75*%
X273037500Y-99843750D03*
D21*
X273037500Y-92043750D03*
%TD*%
D20*
%TO.C,D74*%
X234937500Y-99843750D03*
D21*
X234937500Y-92043750D03*
%TD*%
D20*
%TO.C,D73*%
X196837500Y-99843750D03*
D21*
X196837500Y-92043750D03*
%TD*%
D20*
%TO.C,D72*%
X158737500Y-99843750D03*
D21*
X158737500Y-92043750D03*
%TD*%
D20*
%TO.C,D71*%
X96900000Y-100012500D03*
D21*
X96900000Y-92212500D03*
%TD*%
D20*
%TO.C,D70*%
X58800000Y-100012500D03*
D21*
X58800000Y-92212500D03*
%TD*%
D20*
%TO.C,D67*%
X330187500Y-99843750D03*
D21*
X330187500Y-92043750D03*
%TD*%
D20*
%TO.C,D66*%
X292087500Y-99843750D03*
D21*
X292087500Y-92043750D03*
%TD*%
D20*
%TO.C,D65*%
X253987500Y-99843750D03*
D21*
X253987500Y-92043750D03*
%TD*%
D20*
%TO.C,D64*%
X215887500Y-99843750D03*
D21*
X215887500Y-92043750D03*
%TD*%
D20*
%TO.C,D63*%
X177787500Y-99843750D03*
D21*
X177787500Y-92043750D03*
%TD*%
D20*
%TO.C,D62*%
X139687500Y-99843750D03*
D21*
X139687500Y-92043750D03*
%TD*%
D20*
%TO.C,D61*%
X77850000Y-100012500D03*
D21*
X77850000Y-92212500D03*
%TD*%
D20*
%TO.C,D60*%
X39750000Y-102993750D03*
D21*
X39750000Y-95193750D03*
%TD*%
D20*
%TO.C,D57*%
X339768750Y-80962500D03*
D21*
X339768750Y-73162500D03*
%TD*%
D20*
%TO.C,D56*%
X301668750Y-80962500D03*
D21*
X301668750Y-73162500D03*
%TD*%
D20*
%TO.C,D55*%
X263568750Y-80962500D03*
D21*
X263568750Y-73162500D03*
%TD*%
D20*
%TO.C,D54*%
X225468750Y-80962500D03*
D21*
X225468750Y-73162500D03*
%TD*%
D20*
%TO.C,D53*%
X187368750Y-80962500D03*
D21*
X187368750Y-73162500D03*
%TD*%
D20*
%TO.C,D52*%
X149268750Y-80962500D03*
D21*
X149268750Y-73162500D03*
%TD*%
D20*
%TO.C,D51*%
X96900000Y-80962500D03*
D21*
X96900000Y-73162500D03*
%TD*%
D20*
%TO.C,D50*%
X58800000Y-80962500D03*
D21*
X58800000Y-73162500D03*
%TD*%
D20*
%TO.C,D47*%
X320718750Y-80962500D03*
D21*
X320718750Y-73162500D03*
%TD*%
D20*
%TO.C,D46*%
X282618750Y-80962500D03*
D21*
X282618750Y-73162500D03*
%TD*%
D20*
%TO.C,D45*%
X244518750Y-80962500D03*
D21*
X244518750Y-73162500D03*
%TD*%
D20*
%TO.C,D44*%
X206418750Y-80962500D03*
D21*
X206418750Y-73162500D03*
%TD*%
D20*
%TO.C,D43*%
X168318750Y-80962500D03*
D21*
X168318750Y-73162500D03*
%TD*%
D20*
%TO.C,D42*%
X130218750Y-80962500D03*
D21*
X130218750Y-73162500D03*
%TD*%
D20*
%TO.C,D41*%
X77850000Y-80962500D03*
D21*
X77850000Y-73162500D03*
%TD*%
D20*
%TO.C,D40*%
X39750000Y-75150000D03*
D21*
X39750000Y-67350000D03*
%TD*%
D20*
%TO.C,D37*%
X335081250Y-61837500D03*
D21*
X335081250Y-54037500D03*
%TD*%
D20*
%TO.C,D36*%
X296981250Y-61837500D03*
D21*
X296981250Y-54037500D03*
%TD*%
D20*
%TO.C,D35*%
X258881250Y-61837500D03*
D21*
X258881250Y-54037500D03*
%TD*%
D20*
%TO.C,D34*%
X239812500Y-61781250D03*
D21*
X239812500Y-53981250D03*
%TD*%
D20*
%TO.C,D33*%
X163593750Y-61831250D03*
D21*
X163593750Y-54031250D03*
%TD*%
D20*
%TO.C,D32*%
X144581250Y-61837500D03*
D21*
X144581250Y-54037500D03*
%TD*%
D20*
%TO.C,D31*%
X96900000Y-61912500D03*
D21*
X96900000Y-54112500D03*
%TD*%
D20*
%TO.C,D30*%
X58800000Y-61912500D03*
D21*
X58800000Y-54112500D03*
%TD*%
D20*
%TO.C,D27*%
X316031250Y-61837500D03*
D21*
X316031250Y-54037500D03*
%TD*%
D20*
%TO.C,D26*%
X277931250Y-61837500D03*
D21*
X277931250Y-54037500D03*
%TD*%
D20*
%TO.C,D25*%
X256218750Y-61837500D03*
D21*
X256218750Y-54037500D03*
%TD*%
D20*
%TO.C,D24*%
X237281250Y-61750000D03*
D21*
X237281250Y-53950000D03*
%TD*%
D20*
%TO.C,D23*%
X161062500Y-61775000D03*
D21*
X161062500Y-53975000D03*
%TD*%
D20*
%TO.C,D22*%
X125531250Y-61837500D03*
D21*
X125531250Y-54037500D03*
%TD*%
D20*
%TO.C,D21*%
X77850000Y-61912500D03*
D21*
X77850000Y-54112500D03*
%TD*%
D20*
%TO.C,D20*%
X39750000Y-64962500D03*
D21*
X39750000Y-57162500D03*
%TD*%
D20*
%TO.C,D17*%
X325500000Y-42862500D03*
D21*
X325500000Y-35062500D03*
%TD*%
D20*
%TO.C,D16*%
X287400000Y-42862500D03*
D21*
X287400000Y-35062500D03*
%TD*%
D20*
%TO.C,D15*%
X249300000Y-42862500D03*
D21*
X249300000Y-35062500D03*
%TD*%
D20*
%TO.C,D14*%
X211200000Y-42862500D03*
D21*
X211200000Y-35062500D03*
%TD*%
D20*
%TO.C,D13*%
X173100000Y-42862500D03*
D21*
X173100000Y-35062500D03*
%TD*%
D20*
%TO.C,D12*%
X135000000Y-42862500D03*
D21*
X135000000Y-35062500D03*
%TD*%
D20*
%TO.C,D11*%
X96900000Y-42862500D03*
D21*
X96900000Y-35062500D03*
%TD*%
D20*
%TO.C,D10*%
X58800000Y-42862500D03*
D21*
X58800000Y-35062500D03*
%TD*%
D20*
%TO.C,D7*%
X306450000Y-42862500D03*
D21*
X306450000Y-35062500D03*
%TD*%
D20*
%TO.C,D6*%
X268350000Y-42862500D03*
D21*
X268350000Y-35062500D03*
%TD*%
D20*
%TO.C,D5*%
X230250000Y-42862500D03*
D21*
X230250000Y-35062500D03*
%TD*%
D20*
%TO.C,D4*%
X192150000Y-42862500D03*
D21*
X192150000Y-35062500D03*
%TD*%
D20*
%TO.C,D3*%
X154050000Y-42862500D03*
D21*
X154050000Y-35062500D03*
%TD*%
D20*
%TO.C,D2*%
X115950000Y-42862500D03*
D21*
X115950000Y-35062500D03*
%TD*%
D20*
%TO.C,D1*%
X77850000Y-42862500D03*
D21*
X77850000Y-35062500D03*
%TD*%
D20*
%TO.C,D0*%
X39750000Y-42862500D03*
D21*
X39750000Y-35062500D03*
%TD*%
D10*
%TO.C,MX_5_1*%
X112312500Y-75693750D03*
D11*
X107232500Y-75693750D03*
X117392500Y-75693750D03*
%TD*%
D10*
%TO.C,MX_9_7*%
X362343750Y-37593750D03*
D11*
X357263750Y-37593750D03*
X367423750Y-37593750D03*
D12*
X350437500Y-30608750D03*
X374250000Y-30608750D03*
D10*
X350437500Y-45848750D03*
X374250000Y-45848750D03*
%TD*%
%TO.C,MX_9_6*%
X345675000Y-113793750D03*
D11*
X340595000Y-113793750D03*
X350755000Y-113793750D03*
%TD*%
D10*
%TO.C,MX_9_5*%
X298050000Y-113793750D03*
D11*
X292970000Y-113793750D03*
X303130000Y-113793750D03*
%TD*%
D10*
%TO.C,MX_9_4*%
X28968750Y-37593750D03*
D11*
X23888750Y-37593750D03*
X34048750Y-37593750D03*
%TD*%
D10*
%TO.C,MX_9_3*%
X28968750Y-104268750D03*
D11*
X23888750Y-104268750D03*
X34048750Y-104268750D03*
D12*
X21983750Y-116175000D03*
X21983750Y-92362500D03*
D10*
X37223750Y-116175000D03*
X37223750Y-92362500D03*
%TD*%
%TO.C,MX_9_2*%
X155175000Y-113793750D03*
D11*
X150095000Y-113793750D03*
X160255000Y-113793750D03*
%TD*%
D10*
%TO.C,MX_9_1*%
X107550000Y-113793750D03*
D11*
X102470000Y-113793750D03*
X112630000Y-113793750D03*
%TD*%
D10*
%TO.C,MX_9_0*%
X67068750Y-113793750D03*
D11*
X61988750Y-113793750D03*
X72148750Y-113793750D03*
%TD*%
D10*
%TO.C,MX_8_7*%
X369487500Y-113793750D03*
D11*
X364407500Y-113793750D03*
X374567500Y-113793750D03*
%TD*%
D10*
%TO.C,MX_8_6*%
X321862500Y-113793750D03*
D11*
X316782500Y-113793750D03*
X326942500Y-113793750D03*
%TD*%
D10*
%TO.C,MX_8_3*%
X226612500Y-113793750D03*
D11*
X221532500Y-113793750D03*
X231692500Y-113793750D03*
D12*
X176612600Y-120778750D03*
X276612400Y-120778750D03*
D10*
X176612600Y-105538750D03*
X276612400Y-105538750D03*
%TD*%
%TO.C,MX_8_2*%
X131362500Y-113793750D03*
D11*
X126282500Y-113793750D03*
X136442500Y-113793750D03*
%TD*%
D10*
%TO.C,MX_8_1*%
X86118750Y-113793750D03*
D11*
X81038750Y-113793750D03*
X91198750Y-113793750D03*
%TD*%
D10*
%TO.C,MX_8_0*%
X48018750Y-113793750D03*
D11*
X42938750Y-113793750D03*
X53098750Y-113793750D03*
%TD*%
D10*
%TO.C,MX_7_7*%
X367106250Y-56643750D03*
D11*
X362026250Y-56643750D03*
X372186250Y-56643750D03*
%TD*%
D10*
%TO.C,MX_7_6*%
X319481250Y-94743750D03*
D11*
X314401250Y-94743750D03*
X324561250Y-94743750D03*
%TD*%
D10*
%TO.C,MX_7_5*%
X281381250Y-94743750D03*
D11*
X276301250Y-94743750D03*
X286461250Y-94743750D03*
%TD*%
D10*
%TO.C,MX_7_4*%
X243281250Y-94743750D03*
D11*
X238201250Y-94743750D03*
X248361250Y-94743750D03*
%TD*%
D10*
%TO.C,MX_7_3*%
X205181250Y-94743750D03*
D11*
X200101250Y-94743750D03*
X210261250Y-94743750D03*
%TD*%
D10*
%TO.C,MX_7_2*%
X167081250Y-94743750D03*
D11*
X162001250Y-94743750D03*
X172161250Y-94743750D03*
%TD*%
D10*
%TO.C,MX_7_1*%
X117075000Y-94743750D03*
D11*
X111995000Y-94743750D03*
X122155000Y-94743750D03*
D12*
X105168750Y-87758750D03*
X128981250Y-87758750D03*
D10*
X105168750Y-102998750D03*
X128981250Y-102998750D03*
%TD*%
%TO.C,MX_7_0*%
X67068750Y-94743750D03*
D11*
X61988750Y-94743750D03*
X72148750Y-94743750D03*
%TD*%
D10*
%TO.C,MX_6_7*%
X355200000Y-94743750D03*
D11*
X350120000Y-94743750D03*
X360280000Y-94743750D03*
D12*
X343293750Y-87758750D03*
X367106250Y-87758750D03*
D10*
X343293750Y-102998750D03*
X367106250Y-102998750D03*
%TD*%
%TO.C,MX_6_6*%
X300431250Y-94743750D03*
D11*
X295351250Y-94743750D03*
X305511250Y-94743750D03*
%TD*%
D10*
%TO.C,MX_6_5*%
X262331250Y-94743750D03*
D11*
X257251250Y-94743750D03*
X267411250Y-94743750D03*
%TD*%
D10*
%TO.C,MX_6_4*%
X224231250Y-94743750D03*
D11*
X219151250Y-94743750D03*
X229311250Y-94743750D03*
%TD*%
D10*
%TO.C,MX_6_3*%
X186131250Y-94743750D03*
D11*
X181051250Y-94743750D03*
X191211250Y-94743750D03*
%TD*%
D10*
%TO.C,MX_6_2*%
X148031250Y-94743750D03*
D11*
X142951250Y-94743750D03*
X153111250Y-94743750D03*
%TD*%
D10*
%TO.C,MX_6_1*%
X86118750Y-94743750D03*
D11*
X81038750Y-94743750D03*
X91198750Y-94743750D03*
%TD*%
D10*
%TO.C,MX_6_0*%
X48018750Y-94743750D03*
D11*
X42938750Y-94743750D03*
X53098750Y-94743750D03*
%TD*%
D10*
%TO.C,MX_5_7*%
X359962500Y-75693750D03*
D11*
X354882500Y-75693750D03*
X365042500Y-75693750D03*
D12*
X348056250Y-68708750D03*
X371868750Y-68708750D03*
D10*
X348056250Y-83948750D03*
X371868750Y-83948750D03*
%TD*%
%TO.C,MX_5_6*%
X309956250Y-75693750D03*
D11*
X304876250Y-75693750D03*
X315036250Y-75693750D03*
%TD*%
D10*
%TO.C,MX_5_5*%
X271856250Y-75693750D03*
D11*
X266776250Y-75693750D03*
X276936250Y-75693750D03*
%TD*%
D10*
%TO.C,MX_5_4*%
X233756250Y-75693750D03*
D11*
X228676250Y-75693750D03*
X238836250Y-75693750D03*
%TD*%
D10*
%TO.C,MX_5_3*%
X195656250Y-75693750D03*
D11*
X190576250Y-75693750D03*
X200736250Y-75693750D03*
%TD*%
D10*
%TO.C,MX_5_2*%
X157556250Y-75693750D03*
D11*
X152476250Y-75693750D03*
X162636250Y-75693750D03*
%TD*%
D10*
%TO.C,MX_5_0*%
X67068750Y-75693750D03*
D11*
X61988750Y-75693750D03*
X72148750Y-75693750D03*
%TD*%
D10*
%TO.C,MX_4_7*%
X329006250Y-75693750D03*
D11*
X323926250Y-75693750D03*
X334086250Y-75693750D03*
%TD*%
D10*
%TO.C,MX_4_6*%
X290906250Y-75693750D03*
D11*
X285826250Y-75693750D03*
X295986250Y-75693750D03*
%TD*%
D10*
%TO.C,MX_4_5*%
X252806250Y-75693750D03*
D11*
X247726250Y-75693750D03*
X257886250Y-75693750D03*
%TD*%
D10*
%TO.C,MX_4_4*%
X214706250Y-75693750D03*
D11*
X209626250Y-75693750D03*
X219786250Y-75693750D03*
%TD*%
D10*
%TO.C,MX_4_3*%
X176606250Y-75693750D03*
D11*
X171526250Y-75693750D03*
X181686250Y-75693750D03*
%TD*%
D10*
%TO.C,MX_4_2*%
X138506250Y-75693750D03*
D11*
X133426250Y-75693750D03*
X143586250Y-75693750D03*
%TD*%
D10*
%TO.C,MX_4_1*%
X86118750Y-75693750D03*
D11*
X81038750Y-75693750D03*
X91198750Y-75693750D03*
%TD*%
D10*
%TO.C,MX_4_0*%
X48018750Y-75693750D03*
D11*
X42938750Y-75693750D03*
X53098750Y-75693750D03*
%TD*%
D10*
%TO.C,MX_3_7*%
X343293750Y-56643750D03*
D11*
X338213750Y-56643750D03*
X348373750Y-56643750D03*
%TD*%
D10*
%TO.C,MX_3_6*%
X305193750Y-56643750D03*
D11*
X300113750Y-56643750D03*
X310273750Y-56643750D03*
%TD*%
D10*
%TO.C,MX_3_5*%
X267093750Y-56643750D03*
D11*
X262013750Y-56643750D03*
X272173750Y-56643750D03*
%TD*%
%TO.C,MX_3_4*%
X234073750Y-56643750D03*
X223913750Y-56643750D03*
D10*
X228993750Y-56643750D03*
%TD*%
%TO.C,MX_3_3*%
X190893750Y-56643750D03*
D11*
X185813750Y-56643750D03*
X195973750Y-56643750D03*
%TD*%
D10*
%TO.C,MX_3_2*%
X152793750Y-56643750D03*
D11*
X147713750Y-56643750D03*
X157873750Y-56643750D03*
%TD*%
D10*
%TO.C,MX_3_1*%
X109931250Y-56643750D03*
D11*
X104851250Y-56643750D03*
X115011250Y-56643750D03*
%TD*%
D10*
%TO.C,MX_3_0*%
X67068750Y-56643750D03*
D11*
X61988750Y-56643750D03*
X72148750Y-56643750D03*
%TD*%
D10*
%TO.C,MX_2_7*%
X324243750Y-56643750D03*
D11*
X319163750Y-56643750D03*
X329323750Y-56643750D03*
%TD*%
D10*
%TO.C,MX_2_6*%
X286143750Y-56643750D03*
D11*
X281063750Y-56643750D03*
X291223750Y-56643750D03*
%TD*%
D10*
%TO.C,MX_2_5*%
X248043750Y-56643750D03*
D11*
X242963750Y-56643750D03*
X253123750Y-56643750D03*
%TD*%
D10*
%TO.C,MX_2_4*%
X209943750Y-56643750D03*
D11*
X204863750Y-56643750D03*
X215023750Y-56643750D03*
%TD*%
D10*
%TO.C,MX_2_3*%
X171843750Y-56643750D03*
D11*
X166763750Y-56643750D03*
X176923750Y-56643750D03*
%TD*%
D10*
%TO.C,MX_2_2*%
X133743750Y-56643750D03*
D11*
X128663750Y-56643750D03*
X138823750Y-56643750D03*
%TD*%
D10*
%TO.C,MX_2_1*%
X86118750Y-56643750D03*
D11*
X81038750Y-56643750D03*
X91198750Y-56643750D03*
%TD*%
D10*
%TO.C,MX_2_0*%
X48018750Y-56643750D03*
D11*
X42938750Y-56643750D03*
X53098750Y-56643750D03*
%TD*%
D10*
%TO.C,MX_1_7*%
X333768750Y-37593750D03*
D11*
X328688750Y-37593750D03*
X338848750Y-37593750D03*
%TD*%
D10*
%TO.C,MX_1_6*%
X295668750Y-37593750D03*
D11*
X290588750Y-37593750D03*
X300748750Y-37593750D03*
%TD*%
D10*
%TO.C,MX_1_5*%
X257568750Y-37593750D03*
D11*
X252488750Y-37593750D03*
X262648750Y-37593750D03*
%TD*%
D10*
%TO.C,MX_1_4*%
X219468750Y-37593750D03*
D11*
X214388750Y-37593750D03*
X224548750Y-37593750D03*
%TD*%
D10*
%TO.C,MX_1_3*%
X181368750Y-37593750D03*
D11*
X176288750Y-37593750D03*
X186448750Y-37593750D03*
%TD*%
D10*
%TO.C,MX_1_2*%
X143268750Y-37593750D03*
D11*
X138188750Y-37593750D03*
X148348750Y-37593750D03*
%TD*%
D10*
%TO.C,MX_1_1*%
X105168750Y-37593750D03*
D11*
X100088750Y-37593750D03*
X110248750Y-37593750D03*
%TD*%
D10*
%TO.C,MX_1_0*%
X67068750Y-37593750D03*
D11*
X61988750Y-37593750D03*
X72148750Y-37593750D03*
%TD*%
D10*
%TO.C,MX_0_7*%
X314718750Y-37593750D03*
D11*
X309638750Y-37593750D03*
X319798750Y-37593750D03*
%TD*%
D10*
%TO.C,MX_0_6*%
X276618750Y-37593750D03*
D11*
X271538750Y-37593750D03*
X281698750Y-37593750D03*
%TD*%
D10*
%TO.C,MX_0_5*%
X238518750Y-37593750D03*
D11*
X233438750Y-37593750D03*
X243598750Y-37593750D03*
%TD*%
D10*
%TO.C,MX_0_4*%
X200418750Y-37593750D03*
D11*
X195338750Y-37593750D03*
X205498750Y-37593750D03*
%TD*%
D10*
%TO.C,MX_0_3*%
X162318750Y-37593750D03*
D11*
X157238750Y-37593750D03*
X167398750Y-37593750D03*
%TD*%
D10*
%TO.C,MX_0_2*%
X124218750Y-37593750D03*
D11*
X119138750Y-37593750D03*
X129298750Y-37593750D03*
%TD*%
D10*
%TO.C,MX_0_0*%
X48018750Y-37593750D03*
D11*
X42938750Y-37593750D03*
X53098750Y-37593750D03*
%TD*%
M02*
