%TF.GenerationSoftware,KiCad,Pcbnew,(5.1.7)-1*%
%TF.CreationDate,2021-03-05T08:20:41+07:00*%
%TF.ProjectId,bevi,62657669-2e6b-4696-9361-645f70636258,rev?*%
%TF.SameCoordinates,Original*%
%TF.FileFunction,Legend,Top*%
%TF.FilePolarity,Positive*%
%FSLAX46Y46*%
G04 Gerber Fmt 4.6, Leading zero omitted, Abs format (unit mm)*
G04 Created by KiCad (PCBNEW (5.1.7)-1) date 2021-03-05 08:20:41*
%MOMM*%
%LPD*%
G01*
G04 APERTURE LIST*
%ADD10C,0.300000*%
G04 APERTURE END LIST*
D10*
X246022321Y-114491071D02*
X246022321Y-112991071D01*
X246022321Y-113562500D02*
X246165178Y-113491071D01*
X246450892Y-113491071D01*
X246593750Y-113562500D01*
X246665178Y-113633928D01*
X246736607Y-113776785D01*
X246736607Y-114205357D01*
X246665178Y-114348214D01*
X246593750Y-114419642D01*
X246450892Y-114491071D01*
X246165178Y-114491071D01*
X246022321Y-114419642D01*
X247950892Y-114419642D02*
X247808035Y-114491071D01*
X247522321Y-114491071D01*
X247379464Y-114419642D01*
X247308035Y-114276785D01*
X247308035Y-113705357D01*
X247379464Y-113562500D01*
X247522321Y-113491071D01*
X247808035Y-113491071D01*
X247950892Y-113562500D01*
X248022321Y-113705357D01*
X248022321Y-113848214D01*
X247308035Y-113991071D01*
X248450892Y-112991071D02*
X248950892Y-114491071D01*
X249450892Y-112991071D01*
X249950892Y-114491071D02*
X249950892Y-113491071D01*
X249950892Y-112991071D02*
X249879464Y-113062500D01*
X249950892Y-113133928D01*
X250022321Y-113062500D01*
X249950892Y-112991071D01*
X249950892Y-113133928D01*
X251808035Y-114491071D02*
X251808035Y-112991071D01*
X251808035Y-113562500D02*
X251950892Y-113491071D01*
X252236607Y-113491071D01*
X252379464Y-113562500D01*
X252450892Y-113633928D01*
X252522321Y-113776785D01*
X252522321Y-114205357D01*
X252450892Y-114348214D01*
X252379464Y-114419642D01*
X252236607Y-114491071D01*
X251950892Y-114491071D01*
X251808035Y-114419642D01*
X253022321Y-113491071D02*
X253379464Y-114491071D01*
X253736607Y-113491071D02*
X253379464Y-114491071D01*
X253236607Y-114848214D01*
X253165178Y-114919642D01*
X253022321Y-114991071D01*
X255379464Y-114419642D02*
X255593750Y-114491071D01*
X255950892Y-114491071D01*
X256093750Y-114419642D01*
X256165178Y-114348214D01*
X256236607Y-114205357D01*
X256236607Y-114062500D01*
X256165178Y-113919642D01*
X256093750Y-113848214D01*
X255950892Y-113776785D01*
X255665178Y-113705357D01*
X255522321Y-113633928D01*
X255450892Y-113562500D01*
X255379464Y-113419642D01*
X255379464Y-113276785D01*
X255450892Y-113133928D01*
X255522321Y-113062500D01*
X255665178Y-112991071D01*
X256022321Y-112991071D01*
X256236607Y-113062500D01*
X256879464Y-113705357D02*
X257379464Y-113705357D01*
X257593750Y-114491071D02*
X256879464Y-114491071D01*
X256879464Y-112991071D01*
X257593750Y-112991071D01*
X258236607Y-114491071D02*
X258236607Y-112991071D01*
X259093750Y-114491071D01*
X259093750Y-112991071D01*
X259808035Y-114491071D02*
X259808035Y-112991071D01*
X260165178Y-112991071D01*
X260379464Y-113062500D01*
X260522321Y-113205357D01*
X260593750Y-113348214D01*
X260665178Y-113633928D01*
X260665178Y-113848214D01*
X260593750Y-114133928D01*
X260522321Y-114276785D01*
X260379464Y-114419642D01*
X260165178Y-114491071D01*
X259808035Y-114491071D01*
X261593750Y-113776785D02*
X261593750Y-114491071D01*
X261093750Y-112991071D02*
X261593750Y-113776785D01*
X262093750Y-112991071D01*
X262879464Y-113776785D02*
X262879464Y-114491071D01*
X262379464Y-112991071D02*
X262879464Y-113776785D01*
X263379464Y-112991071D01*
X264450892Y-114419642D02*
X264308035Y-114491071D01*
X264022321Y-114491071D01*
X263879464Y-114419642D01*
X263808035Y-114276785D01*
X263808035Y-113705357D01*
X263879464Y-113562500D01*
X264022321Y-113491071D01*
X264308035Y-113491071D01*
X264450892Y-113562500D01*
X264522321Y-113705357D01*
X264522321Y-113848214D01*
X263808035Y-113991071D01*
X265808035Y-114491071D02*
X265808035Y-113705357D01*
X265736607Y-113562500D01*
X265593750Y-113491071D01*
X265308035Y-113491071D01*
X265165178Y-113562500D01*
X265808035Y-114419642D02*
X265665178Y-114491071D01*
X265308035Y-114491071D01*
X265165178Y-114419642D01*
X265093750Y-114276785D01*
X265093750Y-114133928D01*
X265165178Y-113991071D01*
X265308035Y-113919642D01*
X265665178Y-113919642D01*
X265808035Y-113848214D01*
X266522321Y-114491071D02*
X266522321Y-112991071D01*
X267165178Y-114491071D02*
X267165178Y-113705357D01*
X267093750Y-113562500D01*
X266950892Y-113491071D01*
X266736607Y-113491071D01*
X266593750Y-113562500D01*
X266522321Y-113633928D01*
M02*
